PathFileType	4	(X/Y/Z)	OpenSim_Sub10_EMGStiffKnee_Gyro.trc
DataRate	CameraRate	NumFrames	NumMarkers	Units	OrigDataRate	OrigDataStartFrame	OrigNumFrames
100	100	20	8	m	100	1	8371
Frame#	Time	torso_imu_offset_imu	pelvis_imu_offset_imu	tibia_r_imu_offset_imu	femur_r_imu_offset_imu	tibia_l_imu_offset_imu	femur_l_imu_offset_imu	toes_r_imu_offset_imu	toes_l_imu_offset_imu
				X1	Y1	Z1	X2	Y2	Z2	X3	Y3	Z3	X4	Y4	Z4	X5	Y5	Z5	X6	Y6	Z6	X7	Y7	Z7	X8		Y8	Z8	

1	0	-0.05001800	0.02337500	-0.00711900	-0.01015300	-0.00060700	-0.00658000	-0.00128500	0.01463100	0.00725500	0.00141400	0.02241500	0.00731700	0.00479900	0.00056500	-0.00603500	0.00878300	-0.00834000	0.00494100	0.00149000	0.00681800	0.00054400	-0.00270500	0.01057400	0.00061100
2	0.01000000	-0.04054600	0.01580000	-0.00061800	-0.00934000	-0.00605200	-0.01034700	0.00244900	0.01400700	0.01062300	-0.00023900	0.02509500	-0.00131700	0.00747000	-0.00150500	-0.00698200	0.00471500	-0.00681300	0.00759000	0.00163200	0.00835800	-0.00208900	-0.00423000	0.01284300	0.00001200
3	0.02000000	-0.04045400	0.01609500	-0.00401600	-0.00768000	-0.00316000	-0.01107100	-0.00831500	0.00595100	0.00945000	-0.00332700	0.01926400	-0.00346700	0.01436300	0.00449300	-0.00547600	0.00471500	-0.00681300	0.00759000	0.00349100	0.00207100	-0.00030400	-0.00363300	0.01511800	-0.00393500
4	0.03000000	-0.03717100	0.01603300	-0.00391500	-0.00922000	-0.00303800	-0.01092200	-0.01084700	0.00744800	0.00771100	-0.00584300	0.01711900	-0.00738100	0.01185800	-0.00021800	-0.00490700	0.00513200	-0.00859100	0.00987900	-0.00016800	0.00550700	-0.00034400	0.00121100	0.01170700	-0.00189000
5	0.04000000	-0.03890700	0.01266500	-0.00426600	-0.01371800	-0.00391400	-0.00869500	-0.00930600	0.00975700	0.00589400	-0.00949200	0.01728400	-0.00642600	0.01035700	0.00064200	-0.00098500	0.00513200	-0.00859100	0.00987800	0.00141800	0.00604800	0.00186000	0.00141000	0.01246600	-0.00320600
6	0.05000000	-0.03562500	0.01260200	-0.00416500	-0.01532000	-0.00104600	-0.01061500	-0.00326900	0.01539200	0.00681400	-0.01454000	0.01510500	-0.00802600	0.00196300	0.00477900	-0.00266400	0.00056200	-0.00918700	0.00840700	0.00156000	0.00758800	-0.00077300	-0.00254400	0.01001300	-0.00148600
7	0.06000000	-0.03225500	0.01283700	-0.00746200	-0.01574100	-0.00734100	-0.01096000	0.00398900	0.01631200	0.00881000	-0.01314100	0.01744700	-0.00546800	-0.00580500	0.00777500	-0.00346100	-0.00462100	-0.01001200	0.00266200	0.00152200	0.00472600	0.00109700	-0.00105500	0.00642500	-0.00166800
8	0.07000000	-0.03236700	0.00999900	-0.00634400	-0.01118000	-0.00921200	-0.01111900	0.01015100	0.01869800	0.00821400	-0.01090000	0.01634000	-0.00482400	-0.00242200	0.01276500	-0.00883500	-0.01082000	-0.00872500	0.00564400	0.00338700	0.00339300	0.00046000	0.00269900	0.00811900	-0.00207100
9	0.08000000	-0.03227600	0.01029700	-0.00974200	-0.00839600	-0.01698900	-0.00998100	0.01344200	0.02114600	0.00932400	-0.01481300	0.02293300	-0.00579200	-0.00572000	0.01134000	-0.00672300	-0.01090500	-0.01262600	0.00381200	-0.00030500	0.00892100	-0.00013500	-0.00118400	0.00830500	0.00121100
10	0.09000000	-0.03372400	0.01402600	-0.01288700	-0.00851400	-0.02000400	-0.00940700	0.00748400	0.01659000	0.01466400	-0.00613100	0.01597000	-0.00441400	-0.00070700	0.01612400	-0.00581400	-0.01090500	-0.01262500	0.00381200	0.00515400	0.00833600	-0.00183900	0.00226500	0.00528300	-0.00022100
11	0.10000000	-0.02889600	0.00687500	-0.01816100	-0.00162800	-0.01516500	-0.00638200	0.00695500	0.01173500	0.01281400	-0.01315100	0.01884200	-0.00131000	0.01303300	0.01248400	-0.00807400	-0.01109200	-0.01435100	0.00947100	0.00162500	0.00340400	0.00033400	-0.00298000	0.00717700	0.00036300
12	0.11000000	-0.02383800	0.01216000	-0.01684100	-0.00649000	-0.01657700	-0.00714100	0.00045900	0.01476400	0.01018300	-0.01369300	0.02272400	-0.00442700	0.01412000	0.01234600	-0.00388600	-0.01169700	-0.01429700	0.01284200	0.00521900	0.00415200	-0.00073100	0.00246400	0.00604100	-0.00153700
13	0.12000000	-0.02554800	0.01133100	-0.01491400	-0.00501400	-0.01395100	-0.00935800	-0.01045200	0.01554800	0.01107400	-0.01928800	0.02512800	-0.00707100	0.01466500	0.01227800	-0.00179300	-0.01352100	-0.01442100	0.01531200	0.00180000	0.00285100	-0.00174500	0.00246400	0.00604100	-0.00153700
14	0.13000000	-0.02508000	0.02578800	-0.01566900	-0.01148100	-0.01249500	-0.01203600	-0.01385200	0.01075800	0.01092800	-0.02545600	0.02384600	-0.00795600	0.00054900	0.01384000	-0.00405500	-0.01465500	-0.01069500	0.01624300	0.00349000	0.00207100	-0.00030300	-0.00125500	0.00566600	-0.00035300
15	0.14000000	-0.01990000	0.03701200	-0.01175700	-0.00957500	-0.01208200	-0.00919700	-0.01406900	0.00607600	0.01285600	-0.02684100	0.02079700	-0.01258800	0.00009100	0.01283600	-0.00736200	-0.01598500	-0.00897600	0.01519000	0.00362700	-0.00134400	-0.00051200	0.00202900	0.00320500	0.00031300
16	0.15000000	-0.01394200	0.02015300	-0.00826300	-0.01462600	-0.00950600	-0.01380300	-0.00394000	0.00692800	0.01315300	-0.02966100	0.01891100	-0.00939400	-0.00759100	0.01475700	-0.00937600	-0.01971900	-0.01312300	0.01829500	0.00007100	0.00077000	-0.00131700	0.00110300	0.00775000	-0.00423400
17	0.16000000	-0.00472000	-0.00296100	-0.01207600	-0.01228800	-0.01130800	-0.00591000	0.00136600	0.00987400	0.00748400	-0.02799400	0.01412100	-0.00699300	-0.00713100	0.01576100	-0.00607100	-0.01292900	-0.00839000	0.02126500	0.00507700	0.00261300	0.00190200	-0.00132600	0.00302800	-0.00191600
18	0.17000000	0.00580100	0.01389600	-0.01844800	-0.00411200	-0.00410700	-0.00659700	0.00269400	0.00750100	0.00759600	-0.02321900	0.01305500	-0.00866000	-0.00554400	0.00919100	-0.00915400	-0.01132600	-0.00447800	0.01849300	-0.00024100	0.00473700	0.00097100	0.00073800	0.00755200	-0.00082100
19	0.18000000	0.00566500	0.00851800	-0.01961800	-0.00523500	0.00230900	-0.00610000	0.00182300	0.00121300	0.00918900	-0.01815600	0.01383200	-0.01120500	0.00188700	0.01048700	-0.00350200	-0.01008400	-0.01009300	0.01771000	0.00158600	0.00054200	0.00220500	-0.00278100	0.00793500	-0.00095300
20	0.19000000	0.00091400	0.01962200	-0.01261600	-0.00332900	0.00272200	-0.00326100	0.00411200	0.01305300	0.00729900	-0.01900900	0.01797100	-0.00720700	0.00518600	0.00727700	-0.00356400	-0.01507300	-0.00890200	0.01395400	0.00180000	0.00285100	-0.00174500	-0.00291200	0.00981600	0.00192600
